{
  "id": 23617,
  "contentful_id": "pxqrocxwsjcc_tmk-video-2a05a03a437f440796056c0bc2ca9c6b",
  "locale": "en-us",
  "created_date": "2018-04-27T18:36:18.956Z",
  "updated_date": "2018-06-05T22:19:19.785Z",
  "updated_by_editorial_user_id": 3,
  "created_by_editorial_user_id": 614,
  "revision_num": 11,
  "accent_color": null,
  "attribution_link": null,
  "attribution_text": null,
  "author_person_id": null,
  "basecamp_todolist_id": null,
  "bitly_url": null,
  "branch_url": null,
  "call_sheet_id": null,
  "categories": [],
  "completed_queue_ids": null,
  "cookbook_usability_details": null,
  "delivery_date": null,
  "description": null,
  "director_of_photography_id": null,
  "episode_number": null,
  "final_copy_qa_is_complete": false,
  "final_recipe_qa_is_complete": false,
  "final_tagging_qa_is_complete": false,
  "food_stylist_id": null,
  "gracenote_duration": null,
  "is_hosted": false,
  "is_linear": false,
  "is_localization": false,
  "is_usable_for_cookbook": null,
  "keywords": null,
  "lifecycle_state": "development",
  "linear_ready": false,
  "list_title": null,
  "modulus_save_count": null,
  "oo_tagging": true,
  "origin": "en-us",
  "paywall_until_date": null,
  "pinterest_publish_date": null,
  "premium": false,
  "primary_color": null,
  "producer_id": null,
  "project_id": null,
  "public_until_date": null,
  "publish_date": null,
  "publish_end_date": null,
  "recipe_developer_id": null,
  "recipe_json": null,
  "recipes_qa_status": "not_passed",
  "restrictions": [],
  "save_count": null,
  "season_number": null,
  "seasonality": null,
  "send_oo_landscape_to_amagi": false,
  "series_id": null,
  "shopify_id": null,
  "slug": "wendys-turnkey-albuquerque-balloon-festival",
  "snapchat_publish_date": null,
  "studio_id": null,
  "surface": null,
  "syndication_publish_dates": null,
  "tags": null,
  "test_a_is_complete": false,
  "test_b_is_complete": false,
  "title": "Wendy's Turnkey Albuquerque Balloon Festival",
  "tm_tv_publish_date": null,
  "tmdb_id": null,
  "tms_id": null,
  "truffle_id": null,
  "used_in_compilation": false,
  "verticals": [
      "travel"
  ],
  "workflow_status": "ready",
  "associated_asset_infos": null,
  "associated_crew_infos": null,
  "associated_location_infos": null,
  "associated_other_asset_infos": null,
  "associated_platform_infos": [
      {
          "delivery_date": null,
          "external_publish_meta": {},
          "is_active": false,
          "paywall_until_date": null,
          "publish_date": null,
          "ready_by_date": null,
          "required_image_slot_types": [
              "landscape_thumbnail_asset",
              "portrait_thumbnail_asset",
              "portrait_thumbnail_titled_asset"
          ],
          "required_other_slot_types": [],
          "required_video_slot_types": [
              "landscape_asset_video_asset",
              "landscape_asset_clean_video_asset"
          ],
          "restrictions": null,
          "platform_id": 1
      },
      {
          "delivery_date": null,
          "external_publish_meta": {},
          "is_active": true,
          "paywall_until_date": null,
          "publish_date": null,
          "ready_by_date": null,
          "required_image_slot_types": [],
          "required_other_slot_types": [],
          "required_video_slot_types": [
              "square_asset_video_asset"
          ],
          "restrictions": null,
          "platform_id": 2
      },
      {
          "delivery_date": null,
          "external_publish_meta": {},
          "is_active": true,
          "paywall_until_date": null,
          "publish_date": null,
          "ready_by_date": null,
          "required_image_slot_types": [],
          "required_other_slot_types": [],
          "required_video_slot_types": [
              "square_asset_short_video_asset"
          ],
          "restrictions": null,
          "platform_id": 4
      }
  ],
  "associated_product_ids": null,
  "associated_production_infos": null,
  "associated_talent_infos": null,
  "associated_video_asset_infos": [
      {
          "is_primary": true,
          "is_required": true,
          "notes": null,
          "platform_id": 2,
          "position": 1,
          "slot_type": "square_asset_video_asset",
          "video_asset_id": 164119
      },
      {
          "is_primary": true,
          "is_required": true,
          "notes": null,
          "platform_id": 4,
          "position": 1,
          "slot_type": "square_asset_short_video_asset",
          "video_asset_id": 164120
      }
  ],
  "occasion_infos": null,
  "talent_person_ids": null,
  "related_content_infos": null,
  "postproduction_workflow_state": null,
  "production_workflow_state": null,
  "created_by_editorial_user": {
      "id": 614,
      "locale": "en-us",
      "created_date": "2018-01-25T23:49:03.979Z",
      "updated_date": "2018-01-25T23:49:03.979Z",
      "updated_by_editorial_user_id": 3,
      "created_by_editorial_user_id": 3,
      "revision_num": 1,
      "access_level": "internal_user",
      "avatar_url": "https://lh3.googleusercontent.com/-XdUIqdMkCWA/AAAAAAAAAAI/AAAAAAAAAAA/4252rscbv5M/photo.jpg?sz=50",
      "email": "ryan.mcdonald@tastemade.com",
      "google_user_id": "108843724652360794919",
      "is_pending": false,
      "name": "ryan.mcdonald@tastemade.com",
      "permissions": [],
      "person_id": 2133
  },
  "associated_platforms": [
      {
          "delivery_date": null,
          "external_publish_meta": {},
          "is_active": false,
          "paywall_until_date": null,
          "publish_date": null,
          "ready_by_date": null,
          "required_image_slot_types": [
              "landscape_thumbnail_asset",
              "portrait_thumbnail_asset",
              "portrait_thumbnail_titled_asset"
          ],
          "required_other_slot_types": [],
          "required_video_slot_types": [
              "landscape_asset_video_asset",
              "landscape_asset_clean_video_asset"
          ],
          "restrictions": null,
          "platform_id": 1,
          "platform": {
              "id": 1,
              "locale": "en-us",
              "created_date": "2017-05-30T16:10:44.374Z",
              "updated_date": "2018-03-19T17:55:37.809Z",
              "updated_by_editorial_user_id": 393,
              "created_by_editorial_user_id": 77,
              "revision_num": 2,
              "allowed_orientations": [
                  "landscape",
                  "portrait",
                  "square"
              ],
              "allowed_post_item_model_ids": [
                  "video",
                  "article",
                  "class",
                  "series",
                  "person",
                  "topic",
                  "playlist",
                  "lesson",
                  "product"
              ],
              "is_owned": true,
              "name": "O&O",
              "slug": "oo",
              "thumbnail_url": null,
              "associated_asset_infos": null
          }
      },
      {
          "delivery_date": null,
          "external_publish_meta": {},
          "is_active": true,
          "paywall_until_date": null,
          "publish_date": null,
          "ready_by_date": null,
          "required_image_slot_types": [],
          "required_other_slot_types": [],
          "required_video_slot_types": [
              "square_asset_video_asset"
          ],
          "restrictions": null,
          "platform_id": 2,
          "platform": {
              "id": 2,
              "locale": "en-us",
              "created_date": "2017-05-30T16:10:44.456Z",
              "updated_date": "2018-03-19T17:55:37.776Z",
              "updated_by_editorial_user_id": 393,
              "created_by_editorial_user_id": 77,
              "revision_num": 2,
              "allowed_orientations": [
                  "square",
                  "landscape"
              ],
              "allowed_post_item_model_ids": [
                  "video",
                  "article",
                  "class",
                  "series",
                  "person",
                  "topic",
                  "playlist",
                  "lesson"
              ],
              "is_owned": true,
              "name": "Facebook",
              "slug": "facebook",
              "thumbnail_url": null,
              "associated_asset_infos": null
          }
      },
      {
          "delivery_date": null,
          "external_publish_meta": {},
          "is_active": true,
          "paywall_until_date": null,
          "publish_date": null,
          "ready_by_date": null,
          "required_image_slot_types": [],
          "required_other_slot_types": [],
          "required_video_slot_types": [
              "square_asset_short_video_asset"
          ],
          "restrictions": null,
          "platform_id": 4,
          "platform": {
              "id": 4,
              "locale": "en-us",
              "created_date": "2017-05-30T16:10:44.593Z",
              "updated_date": "2018-03-19T17:55:37.795Z",
              "updated_by_editorial_user_id": 393,
              "created_by_editorial_user_id": 77,
              "revision_num": 2,
              "allowed_orientations": [
                  "square",
                  "portrait"
              ],
              "allowed_post_item_model_ids": [
                  "video",
                  "article",
                  "class",
                  "series",
                  "person",
                  "topic",
                  "playlist",
                  "lesson"
              ],
              "is_owned": true,
              "name": "Instagram",
              "slug": "instagram",
              "thumbnail_url": null,
              "associated_asset_infos": null
          }
      }
  ],
  "associated_products": [],
  "associated_video_assets": [
      {
          "is_primary": true,
          "is_required": true,
          "notes": null,
          "platform_id": 2,
          "position": 1,
          "slot_type": "square_asset_video_asset",
          "video_asset_id": 164119,
          "video_asset": {
              "id": 164119,
              "contentful_id": "pxqrocxwsjcc_tmk-video_asset-3caed59d65644e14b348da1ce0b192f2",
              "locale": "en-us",
              "created_date": "2018-04-27T18:37:17.141Z",
              "updated_date": "2018-04-30T21:27:13.750Z",
              "updated_by_editorial_user_id": 692,
              "created_by_editorial_user_id": 614,
              "revision_num": 4,
              "_4k_playlist": null,
              "ad_break_points": null,
              "amagi_status": "pending",
              "aspect_ratio_float": 1,
              "aws_4k_playlist": null,
              "aws_closed_caption": null,
              "aws_original": "https://s3.amazonaws.com/truffle-originals/5f913558-tastemade_albuquerqueballoons_s_en_us_wendys.mp4",
              "aws_playlists": null,
              "aws_renditions": null,
              "aws_still": null,
              "aws_text_transcript": null,
              "basecamp_todo_id": null,
              "cc_scc_url": null,
              "cc_srt_url": null,
              "cc_text": null,
              "cc_txt_url": null,
              "cc_vtt_url": null,
              "cell_playlist": "https://renditions3-tastemade.akamaized.net/5f913558-tastemade_albuquerqueballoons_s_en_us_wendys/cell.m3u8",
              "completed_queue_ids": null,
              "copied_from_video_asset_id": null,
              "copy_reason": null,
              "duration": 94720,
              "editor_id": 2133,
              "ffmpeg_probe_data": {
                  "format": {
                      "size": "126494020",
                      "tags": {
                          "major_brand": "mp42",
                          "creation_time": "2018-04-23T23:51:19.000000Z",
                          "minor_version": "0",
                          "compatible_brands": "mp42mp41"
                      },
                      "bit_rate": "10683659",
                      "duration": "94.719622",
                      "filename": "https://truffle-video-assets.s3.amazonaws.com/en-us/tastemade_albuquerqueballoons_s_en_us_wendys.mp4",
                      "nb_streams": 2,
                      "start_time": "0.000000",
                      "format_name": "mov,mp4,m4a,3gp,3g2,mj2",
                      "nb_programs": 0,
                      "probe_score": 100,
                      "format_long_name": "QuickTime / MOV"
                  },
                  "streams": [
                      {
                          "refs": 1,
                          "tags": {
                              "encoder": "AVC Coding",
                              "language": "eng",
                              "handler_name": "Alias Data Handler",
                              "creation_time": "2018-04-23T23:51:19.000000Z"
                          },
                          "index": 0,
                          "level": 42,
                          "width": 1080,
                          "height": 1080,
                          "is_avc": "true",
                          "pix_fmt": "yuv420p",
                          "profile": "High",
                          "bit_rate": "10360430",
                          "duration": "94.719625",
                          "codec_tag": "0x31637661",
                          "nb_frames": "2271",
                          "start_pts": 0,
                          "time_base": "1/24000",
                          "codec_name": "h264",
                          "codec_type": "video",
                          "start_time": "0.000000",
                          "coded_width": 1080,
                          "color_range": "tv",
                          "color_space": "bt709",
                          "disposition": {
                              "dub": 0,
                              "forced": 0,
                              "lyrics": 0,
                              "comment": 0,
                              "default": 1,
                              "karaoke": 0,
                              "original": 0,
                              "attached_pic": 0,
                              "clean_effects": 0,
                              "visual_impaired": 0,
                              "hearing_impaired": 0,
                              "timed_thumbnails": 0
                          },
                          "duration_ts": 2273271,
                          "coded_height": 1080,
                          "has_b_frames": 1,
                          "r_frame_rate": "24000/1001",
                          "avg_frame_rate": "24000/1001",
                          "color_transfer": "bt709",
                          "chroma_location": "left",
                          "codec_long_name": "H.264 / AVC / MPEG-4 AVC / MPEG-4 part 10",
                          "codec_time_base": "1001/48000",
                          "color_primaries": "bt709",
                          "nal_length_size": "4",
                          "codec_tag_string": "avc1",
                          "bits_per_raw_sample": "8",
                          "sample_aspect_ratio": "1:1",
                          "display_aspect_ratio": "1:1"
                      },
                      {
                          "tags": {
                              "language": "eng",
                              "handler_name": "Alias Data Handler",
                              "creation_time": "2018-04-23T23:51:19.000000Z"
                          },
                          "index": 1,
                          "profile": "LC",
                          "bit_rate": "317375",
                          "channels": 2,
                          "duration": "94.719625",
                          "codec_tag": "0x6134706d",
                          "nb_frames": "4439",
                          "start_pts": 0,
                          "time_base": "1/48000",
                          "codec_name": "aac",
                          "codec_type": "audio",
                          "sample_fmt": "fltp",
                          "start_time": "0.000000",
                          "disposition": {
                              "dub": 0,
                              "forced": 0,
                              "lyrics": 0,
                              "comment": 0,
                              "default": 1,
                              "karaoke": 0,
                              "original": 0,
                              "attached_pic": 0,
                              "clean_effects": 0,
                              "visual_impaired": 0,
                              "hearing_impaired": 0,
                              "timed_thumbnails": 0
                          },
                          "duration_ts": 4546542,
                          "sample_rate": "48000",
                          "max_bit_rate": "445500",
                          "r_frame_rate": "0/0",
                          "avg_frame_rate": "0/0",
                          "channel_layout": "stereo",
                          "bits_per_sample": 0,
                          "codec_long_name": "AAC (Advanced Audio Coding)",
                          "codec_time_base": "1/48000",
                          "codec_tag_string": "mp4a"
                      }
                  ]
              },
              "filename": null,
              "fingerprint": [
                  -3174146756476565000,
                  -3174146756476565000,
                  -3174146756476565000,
                  6049366017866566000,
                  6049366017866566000,
                  2080012845653248800,
                  2080012845653248800,
                  2080012845653248800,
                  2080012845653248800,
                  2080012845653248800,
                  874241388438975,
                  874241388438975,
                  1718666318570943,
                  145833854394394050,
                  145833854394394050,
                  -3991475358698020000,
                  620210728314629400,
                  1773132232921476400,
                  -7378498869244171000,
                  -7378498869243655000,
                  -1633492356371052500,
                  -1633492356371052500,
                  -1624485225835788300,
                  -1624485225835788300,
                  -1624485225835788300
              ],
              "fingerprint_version": "2.0.0",
              "frame_rate": 23.97,
              "manual_scc_url": null,
              "manual_srt_url": null,
              "manual_vtt_url": null,
              "mp4_renditions": [
                  {
                      "url": "https://renditions3-tastemade.akamaized.net/5f913558-tastemade_albuquerqueballoons_s_en_us_wendys/mp4/5f913558-tastemade_albuquerqueballoons_s_en_us_wendys-360-730-mp4.mp4",
                      "width": 640,
                      "height": 360
                  },
                  {
                      "url": "https://renditions3-tastemade.akamaized.net/5f913558-tastemade_albuquerqueballoons_s_en_us_wendys/mp4/5f913558-tastemade_albuquerqueballoons_s_en_us_wendys-432-1100-mp4.mp4",
                      "width": 768,
                      "height": 432
                  },
                  {
                      "url": "https://renditions3-tastemade.akamaized.net/5f913558-tastemade_albuquerqueballoons_s_en_us_wendys/mp4/5f913558-tastemade_albuquerqueballoons_s_en_us_wendys-540-2000-mp4.mp4",
                      "width": 960,
                      "height": 540
                  },
                  {
                      "url": "https://renditions3-tastemade.akamaized.net/5f913558-tastemade_albuquerqueballoons_s_en_us_wendys/mp4/5f913558-tastemade_albuquerqueballoons_s_en_us_wendys-720-3000-mp4.mp4",
                      "width": 1280,
                      "height": 720
                  },
                  {
                      "url": "https://renditions3-tastemade.akamaized.net/5f913558-tastemade_albuquerqueballoons_s_en_us_wendys/mp4/5f913558-tastemade_albuquerqueballoons_s_en_us_wendys-720-4500-mp4.mp4",
                      "width": 1280,
                      "height": 720
                  },
                  {
                      "url": "https://renditions3-tastemade.akamaized.net/5f913558-tastemade_albuquerqueballoons_s_en_us_wendys/mp4/5f913558-tastemade_albuquerqueballoons_s_en_us_wendys-1080-6000-mp4.mp4",
                      "width": 1920,
                      "height": 1080
                  },
                  {
                      "url": "https://renditions3-tastemade.akamaized.net/5f913558-tastemade_albuquerqueballoons_s_en_us_wendys/mp4/5f913558-tastemade_albuquerqueballoons_s_en_us_wendys-1080-7800-mp4.mp4",
                      "width": 1920,
                      "height": 1080
                  }
              ],
              "orientation": "square",
              "orig_height": 1080,
              "orig_width": 1080,
              "ott_playlist": "https://renditions3-tastemade.akamaized.net/5f913558-tastemade_albuquerqueballoons_s_en_us_wendys/ott.m3u8",
              "processing_status": "uploading",
              "public_until_date": null,
              "qa_did_pass": null,
              "qa_is_complete": false,
              "sent_to_rev": false,
              "should_have_captions": false,
              "size": null,
              "still_image": "https://s3.amazonaws.com/truffle-renditions/5f913558-tastemade_albuquerqueballoons_s_en_us_wendys/thumbnails/1080p-Thumbnail.png",
              "thumbnail_image": null,
              "title": "Tastemade_AlbuquerqueBalloons_S_EN_US_WENDYS.mp4",
              "upload_meta": null,
              "upload_percentage": null,
              "webm": "https://renditions3-tastemade.akamaized.net/5f913558-tastemade_albuquerqueballoons_s_en_us_wendys/5f913558-tastemade_albuquerqueballoons_s_en_us_wendys-360-730-webm.webm",
              "wifi_playlist": "https://renditions3-tastemade.akamaized.net/5f913558-tastemade_albuquerqueballoons_s_en_us_wendys/wifi.m3u8",
              "workflow_status": "ready",
              "ready_workflow_state": {
                  "video_asset_id": 164119,
                  "processing_is_complete": false,
                  "qa_is_complete": false,
                  "qa_did_pass": null,
                  "is_complete": false
              },
              "rejections": null,
              "watermarked_child_asset_id": null,
              "watermarked_child_asset": null
          }
      },
      {
          "is_primary": true,
          "is_required": true,
          "notes": null,
          "platform_id": 4,
          "position": 1,
          "slot_type": "square_asset_short_video_asset",
          "video_asset_id": 164120,
          "video_asset": {
              "id": 164120,
              "contentful_id": "pxqrocxwsjcc_tmk-video_asset-a66204a7de014682a033965759c8c2dc",
              "locale": "en-us",
              "created_date": "2018-04-27T18:37:25.623Z",
              "updated_date": "2018-04-30T21:28:50.978Z",
              "updated_by_editorial_user_id": 692,
              "created_by_editorial_user_id": 614,
              "revision_num": 4,
              "_4k_playlist": null,
              "ad_break_points": null,
              "amagi_status": "pending",
              "aspect_ratio_float": 1,
              "aws_4k_playlist": null,
              "aws_closed_caption": null,
              "aws_original": "https://s3.amazonaws.com/truffle-originals/190864a2-tastemade_albuquerqueballoons_ss_en_us_wendys.mp4",
              "aws_playlists": null,
              "aws_renditions": null,
              "aws_still": null,
              "aws_text_transcript": null,
              "basecamp_todo_id": null,
              "cc_scc_url": null,
              "cc_srt_url": null,
              "cc_text": null,
              "cc_txt_url": null,
              "cc_vtt_url": null,
              "cell_playlist": "https://renditions3-tastemade.akamaized.net/190864a2-tastemade_albuquerqueballoons_ss_en_us_wendys/cell.m3u8",
              "completed_queue_ids": null,
              "copied_from_video_asset_id": null,
              "copy_reason": null,
              "duration": 59810,
              "editor_id": 2133,
              "ffmpeg_probe_data": {
                  "format": {
                      "size": "79731983",
                      "tags": {
                          "major_brand": "mp42",
                          "creation_time": "2018-04-23T23:52:57.000000Z",
                          "minor_version": "0",
                          "compatible_brands": "mp42mp41"
                      },
                      "bit_rate": "10664746",
                      "duration": "59.809756",
                      "filename": "https://truffle-video-assets.s3.amazonaws.com/en-us/tastemade_albuquerqueballoons_ss_en_us_wendys.mp4",
                      "nb_streams": 2,
                      "start_time": "0.000000",
                      "format_name": "mov,mp4,m4a,3gp,3g2,mj2",
                      "nb_programs": 0,
                      "probe_score": 100,
                      "format_long_name": "QuickTime / MOV"
                  },
                  "streams": [
                      {
                          "refs": 1,
                          "tags": {
                              "encoder": "AVC Coding",
                              "language": "eng",
                              "handler_name": "Alias Data Handler",
                              "creation_time": "2018-04-23T23:52:57.000000Z"
                          },
                          "index": 0,
                          "level": 42,
                          "width": 1080,
                          "height": 1080,
                          "is_avc": "true",
                          "pix_fmt": "yuv420p",
                          "profile": "High",
                          "bit_rate": "10338137",
                          "duration": "59.809750",
                          "codec_tag": "0x31637661",
                          "nb_frames": "1434",
                          "start_pts": 0,
                          "time_base": "1/24000",
                          "codec_name": "h264",
                          "codec_type": "video",
                          "start_time": "0.000000",
                          "coded_width": 1080,
                          "color_range": "tv",
                          "color_space": "bt709",
                          "disposition": {
                              "dub": 0,
                              "forced": 0,
                              "lyrics": 0,
                              "comment": 0,
                              "default": 1,
                              "karaoke": 0,
                              "original": 0,
                              "attached_pic": 0,
                              "clean_effects": 0,
                              "visual_impaired": 0,
                              "hearing_impaired": 0,
                              "timed_thumbnails": 0
                          },
                          "duration_ts": 1435434,
                          "coded_height": 1080,
                          "has_b_frames": 1,
                          "r_frame_rate": "24000/1001",
                          "avg_frame_rate": "24000/1001",
                          "color_transfer": "bt709",
                          "chroma_location": "left",
                          "codec_long_name": "H.264 / AVC / MPEG-4 AVC / MPEG-4 part 10",
                          "codec_time_base": "1001/48000",
                          "color_primaries": "bt709",
                          "nal_length_size": "4",
                          "codec_tag_string": "avc1",
                          "bits_per_raw_sample": "8",
                          "sample_aspect_ratio": "1:1",
                          "display_aspect_ratio": "1:1"
                      },
                      {
                          "tags": {
                              "language": "eng",
                              "handler_name": "Alias Data Handler",
                              "creation_time": "2018-04-23T23:52:57.000000Z"
                          },
                          "index": 1,
                          "profile": "LC",
                          "bit_rate": "317375",
                          "channels": 2,
                          "duration": "59.809750",
                          "codec_tag": "0x6134706d",
                          "nb_frames": "2803",
                          "start_pts": 0,
                          "time_base": "1/48000",
                          "codec_name": "aac",
                          "codec_type": "audio",
                          "sample_fmt": "fltp",
                          "start_time": "0.000000",
                          "disposition": {
                              "dub": 0,
                              "forced": 0,
                              "lyrics": 0,
                              "comment": 0,
                              "default": 1,
                              "karaoke": 0,
                              "original": 0,
                              "attached_pic": 0,
                              "clean_effects": 0,
                              "visual_impaired": 0,
                              "hearing_impaired": 0,
                              "timed_thumbnails": 0
                          },
                          "duration_ts": 2870868,
                          "sample_rate": "48000",
                          "max_bit_rate": "445500",
                          "r_frame_rate": "0/0",
                          "avg_frame_rate": "0/0",
                          "channel_layout": "stereo",
                          "bits_per_sample": 0,
                          "codec_long_name": "AAC (Advanced Audio Coding)",
                          "codec_time_base": "1/48000",
                          "codec_tag_string": "mp4a"
                      }
                  ]
              },
              "filename": null,
              "fingerprint": [
                  -2215231086682417700,
                  -2233456040593828400,
                  -2215441642084350500,
                  -6268663714535914000,
                  -6845124466838814000,
                  523785784753297800,
                  523785784753297800,
                  523785784753297800,
                  523785784753297800,
                  523785784753297800,
                  -2977632891233505000,
                  -2978758791138250000,
                  -2978758791138250000,
                  -5526775133560547000,
                  4986273565158274000,
                  -542232841135118800,
                  -542232841135118800,
                  -542232841135118800,
                  -542232841135118800,
                  -542232841135118800,
                  521510999289282800,
                  521510999289282800,
                  521510999289282800,
                  512512596126515500,
                  521519795347702600
              ],
              "fingerprint_version": "2.0.0",
              "frame_rate": 23.97,
              "manual_scc_url": null,
              "manual_srt_url": null,
              "manual_vtt_url": null,
              "mp4_renditions": [
                  {
                      "url": "https://renditions3-tastemade.akamaized.net/190864a2-tastemade_albuquerqueballoons_ss_en_us_wendys/mp4/190864a2-tastemade_albuquerqueballoons_ss_en_us_wendys-360-730-mp4.mp4",
                      "width": 640,
                      "height": 360
                  },
                  {
                      "url": "https://renditions3-tastemade.akamaized.net/190864a2-tastemade_albuquerqueballoons_ss_en_us_wendys/mp4/190864a2-tastemade_albuquerqueballoons_ss_en_us_wendys-432-1100-mp4.mp4",
                      "width": 768,
                      "height": 432
                  },
                  {
                      "url": "https://renditions3-tastemade.akamaized.net/190864a2-tastemade_albuquerqueballoons_ss_en_us_wendys/mp4/190864a2-tastemade_albuquerqueballoons_ss_en_us_wendys-540-2000-mp4.mp4",
                      "width": 960,
                      "height": 540
                  },
                  {
                      "url": "https://renditions3-tastemade.akamaized.net/190864a2-tastemade_albuquerqueballoons_ss_en_us_wendys/mp4/190864a2-tastemade_albuquerqueballoons_ss_en_us_wendys-720-3000-mp4.mp4",
                      "width": 1280,
                      "height": 720
                  },
                  {
                      "url": "https://renditions3-tastemade.akamaized.net/190864a2-tastemade_albuquerqueballoons_ss_en_us_wendys/mp4/190864a2-tastemade_albuquerqueballoons_ss_en_us_wendys-720-4500-mp4.mp4",
                      "width": 1280,
                      "height": 720
                  },
                  {
                      "url": "https://renditions3-tastemade.akamaized.net/190864a2-tastemade_albuquerqueballoons_ss_en_us_wendys/mp4/190864a2-tastemade_albuquerqueballoons_ss_en_us_wendys-1080-6000-mp4.mp4",
                      "width": 1920,
                      "height": 1080
                  },
                  {
                      "url": "https://renditions3-tastemade.akamaized.net/190864a2-tastemade_albuquerqueballoons_ss_en_us_wendys/mp4/190864a2-tastemade_albuquerqueballoons_ss_en_us_wendys-1080-7800-mp4.mp4",
                      "width": 1920,
                      "height": 1080
                  }
              ],
              "orientation": "square",
              "orig_height": 1080,
              "orig_width": 1080,
              "ott_playlist": "https://renditions3-tastemade.akamaized.net/190864a2-tastemade_albuquerqueballoons_ss_en_us_wendys/ott.m3u8",
              "processing_status": "uploading",
              "public_until_date": null,
              "qa_did_pass": null,
              "qa_is_complete": false,
              "sent_to_rev": false,
              "should_have_captions": false,
              "size": null,
              "still_image": "https://s3.amazonaws.com/truffle-renditions/190864a2-tastemade_albuquerqueballoons_ss_en_us_wendys/thumbnails/1080p-Thumbnail.png",
              "thumbnail_image": null,
              "title": "Tastemade_AlbuquerqueBalloons_SS_EN_US_WENDYS.mp4",
              "upload_meta": null,
              "upload_percentage": null,
              "webm": "https://renditions3-tastemade.akamaized.net/190864a2-tastemade_albuquerqueballoons_ss_en_us_wendys/190864a2-tastemade_albuquerqueballoons_ss_en_us_wendys-360-730-webm.webm",
              "wifi_playlist": "https://renditions3-tastemade.akamaized.net/190864a2-tastemade_albuquerqueballoons_ss_en_us_wendys/wifi.m3u8",
              "workflow_status": "ready",
              "ready_workflow_state": {
                  "video_asset_id": 164120,
                  "processing_is_complete": false,
                  "qa_is_complete": false,
                  "qa_did_pass": null,
                  "is_complete": false
              },
              "rejections": null,
              "watermarked_child_asset_id": null,
              "watermarked_child_asset": null
          }
      }
  ],
  "talent_people": []
},
